<svg xmlns="http://www.w3.org/2000/svg" width="48" height="48" fill="none" viewBox="0 0 48 48"><path fill="#52A078" d="M-2.25 3H50.25V45H-2.25V3Z"/><path fill="#F8C06D" d="M24 12L6 24.0692L24 36L42 24.0692L24 12Z"/><circle cx="24" cy="24" r="7.2" fill="#3F7494"/><mask id="mask1" width="16" height="16" x="16" y="16" mask-type="alpha" maskUnits="userSpaceOnUse"><circle cx="24" cy="24" r="7.2" fill="#3F7494"/></mask><g mask="url(#mask1)"><path fill="#fff" fill-rule="evenodd" d="M24.0735 21.8193C21.2125 20.9736 18.1101 21.1659 15.8682 22.2868L15.3315 21.2135C17.8896 19.9345 21.3123 19.7517 24.4137 20.6685C27.5243 21.588 30.3938 23.6396 31.7541 26.9203L30.6456 27.38C29.4559 24.5107 26.9255 22.6623 24.0735 21.8193Z" clip-rule="evenodd"/></g><ellipse cx="20.1" cy="26.4" fill="#fff" rx=".3" ry=".3"/><ellipse cx="25.2" cy="28.5" fill="#fff" rx=".6" ry=".6"/><ellipse cx="22.2" cy="27.9" fill="#fff" rx=".3" ry=".3"/><ellipse cx="27.75" cy="27.15" fill="#fff" rx=".45" ry=".45"/><ellipse cx="23.7" cy="25.5" fill="#fff" rx=".3" ry=".3"/></svg>